<?xml version="1.0" encoding="UTF-8" standalone="no"?>
<svg
   xmlns:dc="http://purl.org/dc/elements/1.1/"
   xmlns:cc="http://creativecommons.org/ns#"
   xmlns:rdf="http://www.w3.org/1999/02/22-rdf-syntax-ns#"
   xmlns:svg="http://www.w3.org/2000/svg"
   xmlns="http://www.w3.org/2000/svg"
   xmlns:sodipodi="http://sodipodi.sourceforge.net/DTD/sodipodi-0.dtd"
   xmlns:inkscape="http://www.inkscape.org/namespaces/inkscape"
   inkscape:export-ydpi="438.85715"
   inkscape:export-xdpi="438.85715"
   inkscape:export-filename="C:\Users\object\Git\discord-github-utils\media\icon.png"
   viewBox="0 0 112 112"
   inkscape:version="1.0 (4035a4fb49, 2020-05-01)"
   sodipodi:docname="icon.svg"
   id="svg4"
   version="1.1"
   height="112"
   width="112">
  <metadata
     id="metadata10">
    <rdf:RDF>
      <cc:Work
         rdf:about="">
        <dc:format>image/svg+xml</dc:format>
        <dc:type
           rdf:resource="http://purl.org/dc/dcmitype/StillImage" />
        <dc:title></dc:title>
      </cc:Work>
    </rdf:RDF>
  </metadata>
  <defs
     id="defs8" />
  <sodipodi:namedview
     scale-x="1"
     fit-margin-bottom="0"
     fit-margin-right="0"
     fit-margin-left="0"
     fit-margin-top="0"
     inkscape:snap-bbox="false"
     borderlayer="false"
     inkscape:pagecheckerboard="true"
     inkscape:current-layer="layer1"
     inkscape:window-maximized="1"
     inkscape:window-y="688"
     inkscape:window-x="-8"
     inkscape:cy="53.665652"
     inkscape:cx="97.226593"
     inkscape:zoom="7.4246212"
     showgrid="false"
     id="namedview6"
     inkscape:window-height="1417"
     inkscape:window-width="2560"
     inkscape:pageshadow="2"
     inkscape:pageopacity="0"
     guidetolerance="10"
     gridtolerance="10"
     objecttolerance="10"
     borderopacity="1"
     bordercolor="#666666"
     pagecolor="#b8b8b8" />
  <g
     transform="translate(-3.0423241,-2.8005333)"
     inkscape:label="icon"
     id="layer1"
     inkscape:groupmode="layer">
    <ellipse
       inkscape:label="background"
       ry="56"
       rx="55.563076"
       cy="58.800533"
       cx="59.042324"
       id="path849"
       style="fill:#ffffff;fill-opacity:1;stroke-width:0.340172" />
    <path
       style="stroke-width:0.992948"
       sodipodi:nodetypes="sscscccccczczssccs"
       inkscape:label="github"
       id="path2"
       fill="#24292f"
       d="m 59.08243,11.138816 c -26.824498,0 -48.509495,21.844862 -48.509495,48.869935 0,21.602582 13.894325,39.888718 33.169437,46.360749 2.409885,0.48655 3.292616,-1.05153 3.292616,-2.34534 0,-1.13296 -0.07943,-5.016373 -0.07943,-9.062637 -13.494167,2.91331 -16.304211,-5.825628 -16.304211,-5.825628 -2.168599,-5.663777 -5.38178,-7.119439 -5.38178,-7.119439 -4.416634,-2.993739 0.321716,-2.993739 0.321716,-2.993739 4.899206,0.323701 7.469949,5.016375 7.469949,5.016375 4.336206,7.44314 11.323583,5.340076 14.134619,4.045271 0.401151,-3.155589 1.62015,-6.395858 3.052323,-7.943584 1.432173,-1.547726 4.536235,-3.99188 8.794046,-3.99188 4.257812,0 7.193771,2.220752 8.794047,3.991876 1.600276,1.771124 3.292616,5.839527 3.292616,10.451772 0,6.553458 -0.07944,11.813103 -0.07944,13.430623 0,1.2948 0.883724,2.83288 3.292617,2.34733 C 93.617171,99.896476 107.5115,81.611333 107.5115,60.008751 107.59094,32.983678 85.826499,11.138816 59.08243,11.138816 Z"
       clip-rule="evenodd"
       fill-rule="evenodd" />
    <path
       inkscape:label="discord"
       style="display:inline;stroke-width:0.502384"
       fill="#ffffff"
       d="m 81.212356,38.649966 a 52.825531,52.825531 0 0 0 -13.177498,-4.054225 36.20169,36.20169 0 0 0 -1.688005,3.431272 49.072732,49.072732 0 0 0 -14.624356,0 36.35743,36.35743 0 0 0 -1.688006,-3.431272 53.197294,53.197294 0 0 0 -13.187542,4.064273 C 28.507396,50.998531 26.246674,63.030595 27.377036,74.891848 v 0 a 53.116913,53.116913 0 0 0 16.161648,8.113478 39.035128,39.035128 0 0 0 3.461416,-5.58147 34.373017,34.373017 0 0 1 -5.450851,-2.602342 c 0.457168,-0.331573 0.904289,-0.673192 1.336338,-1.004766 a 37.965053,37.965053 0 0 0 32.31325,0 c 0.437072,0.356692 0.884193,0.698313 1.336337,1.004766 a 34.503638,34.503638 0 0 1 -5.460899,2.607367 38.683461,38.683461 0 0 0 3.461417,5.576445 52.875767,52.875767 0 0 0 16.171695,-8.108454 v 0 C 92.033678,61.141635 88.441643,49.220097 81.212356,38.649966 Z M 48.43189,67.597253 c -3.149939,0 -5.75228,-2.858557 -5.75228,-6.375237 0,-3.516677 2.511912,-6.400352 5.742232,-6.400352 3.230322,0 5.812568,2.883675 5.757306,6.400352 -0.05527,3.51668 -2.537032,6.375237 -5.747258,6.375237 z m 21.220642,0 c -3.154963,0 -5.747258,-2.858557 -5.747258,-6.375237 0,-3.516677 2.511914,-6.400352 5.747258,-6.400352 3.235344,0 5.797497,2.883675 5.742235,6.400352 -0.05527,3.51668 -2.532009,6.375237 -5.742235,6.375237 z"
       id="path835" />
  </g>
</svg>
