<?xml version="1.0" encoding="UTF-8" standalone="no"?>
<svg
   xmlns:dc="http://purl.org/dc/elements/1.1/"
   xmlns:cc="http://creativecommons.org/ns#"
   xmlns:rdf="http://www.w3.org/1999/02/22-rdf-syntax-ns#"
   xmlns:svg="http://www.w3.org/2000/svg"
   xmlns="http://www.w3.org/2000/svg"
   xmlns:sodipodi="http://sodipodi.sourceforge.net/DTD/sodipodi-0.dtd"
   xmlns:inkscape="http://www.inkscape.org/namespaces/inkscape"
   width="128"
   height="128"
   version="1.1"
   id="svg4"
   sodipodi:docname="icon.svg"
   inkscape:version="1.0 (4035a4fb49, 2020-05-01)"
   viewBox="0 0 113.73824 113.73824"
   inkscape:export-filename="C:\Users\object\Git\discord-github-utils\media\icon.png"
   inkscape:export-xdpi="384"
   inkscape:export-ydpi="384">
  <metadata
     id="metadata10">
    <rdf:RDF>
      <cc:Work
         rdf:about="">
        <dc:format>image/svg+xml</dc:format>
        <dc:type
           rdf:resource="http://purl.org/dc/dcmitype/StillImage" />
        <dc:title></dc:title>
      </cc:Work>
    </rdf:RDF>
  </metadata>
  <defs
     id="defs8" />
  <sodipodi:namedview
     inkscape:document-rotation="0"
     pagecolor="#b8b8b8"
     bordercolor="#666666"
     borderopacity="1"
     objecttolerance="10"
     gridtolerance="10"
     guidetolerance="10"
     inkscape:pageopacity="0"
     inkscape:pageshadow="2"
     inkscape:window-width="2560"
     inkscape:window-height="1417"
     id="namedview6"
     showgrid="false"
     inkscape:zoom="5.6568543"
     inkscape:cx="48.634109"
     inkscape:cy="62.648365"
     inkscape:window-x="-8"
     inkscape:window-y="688"
     inkscape:window-maximized="1"
     inkscape:current-layer="layer1"
     inkscape:pagecheckerboard="true"
     borderlayer="false"
     inkscape:snap-bbox="false"
     fit-margin-top="0"
     fit-margin-left="0"
     fit-margin-right="0"
     fit-margin-bottom="0"
     scale-x="0.88858" />
  <g
     inkscape:groupmode="layer"
     id="layer1"
     inkscape:label="icon"
     transform="translate(-2.5339088,-2.3005333)">
    <ellipse
       style="fill:#ffffff;fill-opacity:1;stroke:#ffffff;stroke-width:16;stroke-miterlimit:4;stroke-dasharray:none;stroke-opacity:1"
       id="path849"
       cx="59.40303"
       cy="59.169579"
       rx="48.474686"
       ry="48.869045"
       inkscape:label="background" />
    <path
       fill-rule="evenodd"
       clip-rule="evenodd"
       d="m 59.443132,10.30548 c -26.824498,0 -48.509495,21.844862 -48.509495,48.869935 0,21.602582 13.894325,39.888718 33.169437,46.360745 2.409885,0.48655 3.292616,-1.05153 3.292616,-2.34534 0,-1.13296 -0.07943,-5.016369 -0.07943,-9.062633 -13.494167,2.91331 -16.304211,-5.825628 -16.304211,-5.825628 -2.168599,-5.663777 -5.38178,-7.119439 -5.38178,-7.119439 -4.416634,-2.993739 0.321716,-2.993739 0.321716,-2.993739 4.899206,0.323701 7.469949,5.016375 7.469949,5.016375 4.336206,7.44314 11.323583,5.340076 14.134619,4.045271 0.401151,-3.155589 1.62015,-6.395858 3.052323,-7.943584 1.432173,-1.547726 4.536235,-3.99188 8.794046,-3.99188 4.257812,0 7.193771,2.220752 8.794047,3.991876 1.600276,1.771124 3.292616,5.839527 3.292616,10.451772 0,6.553458 -0.07944,11.813099 -0.07944,13.430619 0,1.2948 0.883724,2.83288 3.292617,2.34733 C 93.977873,99.06314 107.8722,80.777997 107.8722,59.175415 107.95164,32.150342 86.187201,10.30548 59.443132,10.30548 Z"
       fill="#24292f"
       id="path2"
       inkscape:label="github"
       sodipodi:nodetypes="sscscccccczczssccs"
       style="stroke-width:0.992948" />
    <path
       id="path835"
       d="m 81.57306,37.81663 a 52.825531,52.825531 0 0 0 -13.177498,-4.054225 36.20169,36.20169 0 0 0 -1.688005,3.431272 49.072732,49.072732 0 0 0 -14.624356,0 36.35743,36.35743 0 0 0 -1.688006,-3.431272 53.197294,53.197294 0 0 0 -13.187542,4.064273 C 28.8681,50.165195 26.607378,62.197259 27.73774,74.058512 v 0 a 53.116913,53.116913 0 0 0 16.161648,8.113478 39.035128,39.035128 0 0 0 3.461416,-5.58147 34.373017,34.373017 0 0 1 -5.450851,-2.602342 c 0.457168,-0.331573 0.904289,-0.673192 1.336338,-1.004766 a 37.965053,37.965053 0 0 0 32.31325,0 c 0.437072,0.356692 0.884193,0.698313 1.336337,1.004766 a 34.503638,34.503638 0 0 1 -5.460899,2.607367 38.683461,38.683461 0 0 0 3.461417,5.576445 52.875767,52.875767 0 0 0 16.171695,-8.108454 v 0 C 92.394382,60.308299 88.802347,48.386761 81.57306,37.81663 Z M 48.792594,66.763917 c -3.149939,0 -5.75228,-2.858557 -5.75228,-6.375237 0,-3.516677 2.511912,-6.400352 5.742232,-6.400352 3.230322,0 5.812568,2.883675 5.757306,6.400352 -0.05527,3.51668 -2.537032,6.375237 -5.747258,6.375237 z m 21.220642,0 c -3.154963,0 -5.747258,-2.858557 -5.747258,-6.375237 0,-3.516677 2.511914,-6.400352 5.747258,-6.400352 3.235344,0 5.797497,2.883675 5.742235,6.400352 -0.05527,3.51668 -2.532009,6.375237 -5.742235,6.375237 z"
       fill="#ffffff"
       style="display:inline;stroke-width:0.502384"
       inkscape:label="discord" />
  </g>
</svg>
